<svg width="72" height="24" viewBox="0 0 72 24" fill="none" xmlns="http://www.w3.org/2000/svg">
<rect x="0.5" y="0.5" width="71" height="23" rx="11.5" fill="white"/>
<rect x="0.5" y="0.5" width="71" height="23" rx="11.5" stroke="#D2DAE0"/>
<path d="M15.5 12.499H12.5V15.499H11.5V12.499H8.5V11.499H11.5V8.49902H12.5V11.499H15.5V12.499Z" fill="#879298"/>
<path d="M28.1914 8.05469H21.5527V7.15234H28.1914V8.05469ZM29.9609 12.5605H20.3867V11.6523H29.9609V12.5605ZM25.7012 17.0137H24.5879V12.2676H25.7012V17.0137ZM28.7422 8.07812C28.7422 8.58594 28.7363 9.02344 28.7246 9.39062C28.7129 9.75391 28.6758 10.1758 28.6133 10.6562C28.5547 11.1328 28.4609 11.6504 28.332 12.209L27.2305 12.0801C27.3594 11.5449 27.4531 11.0449 27.5117 10.5801C27.5703 10.1152 27.6055 9.70312 27.6172 9.34375C27.6289 8.98438 27.6348 8.56445 27.6348 8.08398V7.15234H28.7422V8.07812ZM40.332 12.5781H30.7578V11.6816H40.332V12.5781ZM36.0957 12.0215H34.9883V9.91211H36.0957V12.0215ZM39.1719 17.0605H38.0703V14.3945H31.8184V13.5039H39.1719V17.0605ZM39.2598 10.5215H31.959V9.61914H39.2598V10.5215ZM39.166 7.81445H33.0605V10.0996H31.959V6.91797H39.166V7.81445ZM49.3086 16.9902H48.207V6.49023H49.3086V16.9902ZM51.002 11.6699H49.0566V10.75H51.002V11.6699ZM47.293 9.04492H41.0703V8.13672H47.293V9.04492ZM44.2285 9.82422C44.7285 9.82422 45.1758 9.92773 45.5703 10.1348C45.9688 10.3418 46.2793 10.6309 46.502 11.002C46.7285 11.373 46.8418 11.793 46.8418 12.2617C46.8418 12.7344 46.7285 13.1562 46.502 13.5273C46.2793 13.8984 45.9688 14.1875 45.5703 14.3945C45.1758 14.6016 44.7285 14.7051 44.2285 14.7051C43.7246 14.7051 43.2754 14.6016 42.8809 14.3945C42.4863 14.1875 42.1758 13.8984 41.9492 13.5273C41.7266 13.1562 41.6152 12.7344 41.6152 12.2617C41.6152 11.793 41.7266 11.373 41.9492 11.002C42.1758 10.6309 42.4863 10.3418 42.8809 10.1348C43.2754 9.92773 43.7246 9.82422 44.2285 9.82422ZM44.2285 10.7441C43.9316 10.7441 43.666 10.8086 43.4316 10.9375C43.1973 11.0625 43.0117 11.2402 42.875 11.4707C42.7422 11.7012 42.6758 11.9648 42.6758 12.2617C42.6758 12.5625 42.7422 12.8262 42.875 13.0527C43.0117 13.2793 43.1973 13.457 43.4316 13.5859C43.666 13.7109 43.9316 13.7734 44.2285 13.7734C44.5254 13.7734 44.791 13.7109 45.0254 13.5859C45.2598 13.457 45.4434 13.2793 45.5762 13.0527C45.709 12.8262 45.7754 12.5625 45.7754 12.2617C45.7754 11.9648 45.709 11.7012 45.5762 11.4707C45.4434 11.2402 45.2598 11.0625 45.0254 10.9375C44.791 10.8086 44.5254 10.7441 44.2285 10.7441ZM44.7734 8.52344H43.666V6.63086H44.7734V8.52344ZM60.2305 16.9902H59.1055V6.49023H60.2305V16.9902ZM57.1133 7.62109C57.1133 8.69141 56.9473 9.68164 56.6152 10.5918C56.2871 11.498 55.7598 12.334 55.0332 13.0996C54.3066 13.8613 53.3613 14.5215 52.1973 15.0801L51.5996 14.1777C52.6113 13.7012 53.4414 13.1465 54.0898 12.5137C54.7422 11.8809 55.2246 11.1738 55.5371 10.3926C55.8496 9.61133 56.0059 8.74805 56.0059 7.80273V7.62109H57.1133ZM56.4863 8.51172H52.1094V7.62109H56.4863V8.51172Z" fill="#879298"/>
</svg>
