<svg width="73" height="24" viewBox="0 0 73 24" fill="none" xmlns="http://www.w3.org/2000/svg">
<rect x="1.16699" y="0.5" width="71" height="23" rx="11.5" fill="#F5F7F9"/>
<rect x="1.16699" y="0.5" width="71" height="23" rx="11.5" stroke="#D2DAE0"/>
<path d="M10.267 15L9.66699 14.4L12.067 12L9.66699 9.6L10.267 9L12.667 11.4L15.067 9L15.667 9.6L13.267 12L15.667 14.4L15.067 15L12.667 12.6L10.267 15Z" fill="#879298"/>
<path d="M26.2393 9.13281H21.0303V8.23633H26.2393V9.13281ZM23.6436 9.75977C24.085 9.75977 24.4775 9.86328 24.8213 10.0703C25.1689 10.2734 25.4404 10.5586 25.6357 10.9258C25.8311 11.293 25.9287 11.7129 25.9287 12.1855C25.9287 12.6543 25.8311 13.0742 25.6357 13.4453C25.4404 13.8125 25.1689 14.1016 24.8213 14.3125C24.4775 14.5234 24.085 14.6289 23.6436 14.6289C23.2061 14.6289 22.8135 14.5234 22.4658 14.3125C22.1221 14.1016 21.8525 13.8105 21.6572 13.4395C21.4658 13.0684 21.3701 12.6504 21.3701 12.1855C21.3701 11.7207 21.4658 11.3027 21.6572 10.9316C21.8525 10.5605 22.1221 10.2734 22.4658 10.0703C22.8135 9.86328 23.2061 9.75977 23.6436 9.75977ZM23.6436 10.6914C23.3975 10.6914 23.1748 10.7559 22.9756 10.8848C22.7803 11.0098 22.6279 11.1855 22.5186 11.4121C22.4092 11.6348 22.3545 11.8926 22.3545 12.1855C22.3545 12.4746 22.4092 12.7324 22.5186 12.959C22.6318 13.1855 22.7861 13.3594 22.9814 13.4805C23.1768 13.6016 23.3975 13.6621 23.6436 13.6621C23.8936 13.6621 24.1162 13.6016 24.3115 13.4805C24.5107 13.3594 24.667 13.1855 24.7803 12.959C24.8936 12.7324 24.9502 12.4746 24.9502 12.1855C24.9502 11.8926 24.8936 11.6348 24.7803 11.4121C24.667 11.1855 24.5107 11.0098 24.3115 10.8848C24.1162 10.7559 23.8936 10.6914 23.6436 10.6914ZM30.042 16.9902H28.9814V6.49023H30.042V16.9902ZM29.333 11.7754H27.4111V10.8672H29.333V11.7754ZM27.7744 16.498H26.7256V6.73633H27.7744V16.498ZM24.2002 8.79297H23.0986V6.80078H24.2002V8.79297ZM35.0752 9.58984C35.0752 10.3438 34.9443 11.082 34.6826 11.8047C34.4209 12.5234 34.0615 13.1641 33.6045 13.7266C33.1475 14.2852 32.6299 14.7051 32.0518 14.9863L31.3955 14.1133C31.915 13.8633 32.3857 13.498 32.8076 13.0176C33.2295 12.5332 33.5596 11.9922 33.7979 11.3945C34.04 10.793 34.1611 10.1914 34.1611 9.58984V8.03125H35.0752V9.58984ZM35.2861 9.58984C35.2861 10.168 35.4033 10.7422 35.6377 11.3125C35.876 11.8828 36.2061 12.3906 36.6279 12.8359C37.0537 13.2812 37.5322 13.6191 38.0635 13.8496L37.4482 14.7227C36.8545 14.457 36.3252 14.0625 35.8604 13.5391C35.3994 13.0156 35.04 12.4121 34.7822 11.7285C34.5283 11.0449 34.4014 10.332 34.4014 9.58984V8.03125H35.2861V9.58984ZM37.6885 8.4707H31.7646V7.55664H37.6885V8.4707ZM40.126 16.9902H39.0068V6.49023H40.126V16.9902ZM49.9756 16.9902H48.874V6.49023H49.9756V16.9902ZM51.6689 11.6699H49.7236V10.75H51.6689V11.6699ZM47.96 9.04492H41.7373V8.13672H47.96V9.04492ZM44.8955 9.82422C45.3955 9.82422 45.8428 9.92773 46.2373 10.1348C46.6357 10.3418 46.9463 10.6309 47.1689 11.002C47.3955 11.373 47.5088 11.793 47.5088 12.2617C47.5088 12.7344 47.3955 13.1562 47.1689 13.5273C46.9463 13.8984 46.6357 14.1875 46.2373 14.3945C45.8428 14.6016 45.3955 14.7051 44.8955 14.7051C44.3916 14.7051 43.9424 14.6016 43.5479 14.3945C43.1533 14.1875 42.8428 13.8984 42.6162 13.5273C42.3936 13.1562 42.2822 12.7344 42.2822 12.2617C42.2822 11.793 42.3936 11.373 42.6162 11.002C42.8428 10.6309 43.1533 10.3418 43.5479 10.1348C43.9424 9.92773 44.3916 9.82422 44.8955 9.82422ZM44.8955 10.7441C44.5986 10.7441 44.333 10.8086 44.0986 10.9375C43.8643 11.0625 43.6787 11.2402 43.542 11.4707C43.4092 11.7012 43.3428 11.9648 43.3428 12.2617C43.3428 12.5625 43.4092 12.8262 43.542 13.0527C43.6787 13.2793 43.8643 13.457 44.0986 13.5859C44.333 13.7109 44.5986 13.7734 44.8955 13.7734C45.1924 13.7734 45.458 13.7109 45.6924 13.5859C45.9268 13.457 46.1104 13.2793 46.2432 13.0527C46.376 12.8262 46.4424 12.5625 46.4424 12.2617C46.4424 11.9648 46.376 11.7012 46.2432 11.4707C46.1104 11.2402 45.9268 11.0625 45.6924 10.9375C45.458 10.8086 45.1924 10.7441 44.8955 10.7441ZM45.4404 8.52344H44.333V6.63086H45.4404V8.52344ZM60.8975 16.9902H59.7725V6.49023H60.8975V16.9902ZM57.7803 7.62109C57.7803 8.69141 57.6143 9.68164 57.2822 10.5918C56.9541 11.498 56.4268 12.334 55.7002 13.0996C54.9736 13.8613 54.0283 14.5215 52.8643 15.0801L52.2666 14.1777C53.2783 13.7012 54.1084 13.1465 54.7568 12.5137C55.4092 11.8809 55.8916 11.1738 56.2041 10.3926C56.5166 9.61133 56.6729 8.74805 56.6729 7.80273V7.62109H57.7803ZM57.1533 8.51172H52.7764V7.62109H57.1533V8.51172Z" fill="#879298"/>
</svg>
